<?xml version="1.0" encoding="UTF-8" standalone="no"?>
<!-- Created with Inkscape (http://www.inkscape.org/) -->

<svg
   width="265mm"
   height="177mm"
   viewBox="0 0 265 177"
   version="1.1"
   id="svg10589"
   xml:space="preserve"
   inkscape:export-filename="fundo.png"
   inkscape:export-xdpi="96"
   inkscape:export-ydpi="96"
   inkscape:version="1.2.2 (732a01da63, 2022-12-09)"
   sodipodi:docname="desenho.svg"
   xmlns:inkscape="http://www.inkscape.org/namespaces/inkscape"
   xmlns:sodipodi="http://sodipodi.sourceforge.net/DTD/sodipodi-0.dtd"
   xmlns:xlink="http://www.w3.org/1999/xlink"
   xmlns="http://www.w3.org/2000/svg"
   xmlns:svg="http://www.w3.org/2000/svg"><sodipodi:namedview
     id="namedview10591"
     pagecolor="#ffffff"
     bordercolor="#000000"
     borderopacity="0.25"
     inkscape:showpageshadow="2"
     inkscape:pageopacity="0.0"
     inkscape:pagecheckerboard="0"
     inkscape:deskcolor="#d1d1d1"
     inkscape:document-units="mm"
     showgrid="false"
     inkscape:zoom="0.74029882"
     inkscape:cx="559.23363"
     inkscape:cy="303.93132"
     inkscape:window-width="1920"
     inkscape:window-height="1011"
     inkscape:window-x="-8"
     inkscape:window-y="-8"
     inkscape:window-maximized="1"
     inkscape:current-layer="layer1" /><defs
     id="defs10586"><linearGradient
       id="linearGradient11089"
       inkscape:swatch="solid"><stop
         style="stop-color:#aeb700;stop-opacity:1;"
         offset="0"
         id="stop11087" /></linearGradient><linearGradient
       inkscape:collect="always"
       xlink:href="#linearGradient11089"
       id="linearGradient11091"
       x1="0.43628966"
       y1="88.796629"
       x2="264.88627"
       y2="88.796629"
       gradientUnits="userSpaceOnUse"
       gradientTransform="matrix(0.98796295,0,0,0.98597553,1.7755427,1.066621)" /></defs><g
     inkscape:label="Camada 1"
     inkscape:groupmode="layer"
     id="layer1"><path
       style="fill:#1a1a1a;stroke:url(#linearGradient11091);stroke-width:2.53158;stroke-linecap:butt;stroke-dasharray:none;paint-order:fill markers stroke;fill-opacity:1"
       d="M 22.861138,175.02801 C 13.336999,172.98664 5.6140154,165.52396 2.9252612,155.7641 L 2.2065807,153.15537 V 88.719812 24.284255 L 2.925671,21.675528 C 4.2597845,16.835611 6.5206805,12.895618 9.897972,9.5251215 13.275264,6.1546241 17.223197,3.8982762 22.07287,2.5668466 L 24.686857,1.8492029 H 132.38306 c 87.41638,0 108.01616,0.06397 109.39529,0.339715 8.36996,1.6734841 15.10538,6.7626309 18.88502,14.2691571 1.18685,2.357114 2.17167,5.493469 2.52817,8.051469 0.19648,1.409849 0.28257,21.048731 0.28184,64.294363 -7.8e-4,53.437593 -0.0553,62.597313 -0.38398,64.612333 -1.65318,10.13629 -8.84215,18.21825 -18.95845,21.31348 l -1.96049,0.59984 -108.74181,0.0448 c -95.789683,0.0396 -108.959254,-0.002 -110.567512,-0.34642 z"
       id="path11085" /></g></svg>
