<?xml version="1.0" encoding="UTF-8" standalone="no"?>
<!-- Created with Inkscape (http://www.inkscape.org/) -->

<svg
   version="1.1"
   id="svg182"
   width="682.66669"
   height="372"
   viewBox="0 0 682.66669 372"
   sodipodi:docname="LOGO-TR-BOT-1.svg"
   xml:space="preserve"
   inkscape:export-filename="LOGO-MINES-MILIONARIO-1.png"
   inkscape:export-xdpi="96"
   inkscape:export-ydpi="96"
   inkscape:version="1.2.2 (732a01da63, 2022-12-09)"
   xmlns:inkscape="http://www.inkscape.org/namespaces/inkscape"
   xmlns:sodipodi="http://sodipodi.sourceforge.net/DTD/sodipodi-0.dtd"
   xmlns:xlink="http://www.w3.org/1999/xlink"
   xmlns="http://www.w3.org/2000/svg"
   xmlns:svg="http://www.w3.org/2000/svg"><defs
     id="defs186"><linearGradient
       id="linearGradient14999"
       inkscape:swatch="solid"><stop
         style="stop-color:#000000;stop-opacity:1;"
         offset="0"
         id="stop14997" /></linearGradient><linearGradient
       id="linearGradient14726"
       inkscape:swatch="solid"><stop
         style="stop-color:#ffffff;stop-opacity:1;"
         offset="0"
         id="stop14724" /></linearGradient><linearGradient
       id="linearGradient7670"
       inkscape:swatch="solid"><stop
         style="stop-color:#000000;stop-opacity:1;"
         offset="0"
         id="stop7668" /></linearGradient><linearGradient
       id="linearGradient5596"
       inkscape:swatch="solid"><stop
         style="stop-color:#000000;stop-opacity:1;"
         offset="0"
         id="stop5594" /></linearGradient><linearGradient
       id="linearGradient1208"
       inkscape:swatch="solid"><stop
         style="stop-color:#000000;stop-opacity:1;"
         offset="0"
         id="stop1206" /></linearGradient><linearGradient
       id="linearGradient1202"
       inkscape:swatch="solid"><stop
         style="stop-color:#ffff00;stop-opacity:1;"
         offset="0"
         id="stop1200" /></linearGradient><rect
       x="4.2718429"
       y="-60.517774"
       width="336.76361"
       height="192.23293"
       id="rect640" /><linearGradient
       inkscape:collect="always"
       xlink:href="#linearGradient1208"
       id="linearGradient5598"
       x1="36.495037"
       y1="225.1636"
       x2="251.1404"
       y2="225.1636"
       gradientUnits="userSpaceOnUse"
       gradientTransform="matrix(0.9908035,0,0,0.9908035,186.66676,-121.02445)" /><linearGradient
       inkscape:collect="always"
       xlink:href="#linearGradient5596"
       id="linearGradient8936"
       gradientUnits="userSpaceOnUse"
       gradientTransform="matrix(0.97267145,0,0,0.97267145,158.71967,45.465408)"
       x1="28.415569"
       y1="308.37134"
       x2="277.18674"
       y2="308.37134" /><linearGradient
       inkscape:collect="always"
       xlink:href="#linearGradient5596"
       id="linearGradient8956"
       gradientUnits="userSpaceOnUse"
       gradientTransform="matrix(0.96152744,0,0,0.96152738,268.50827,58.854117)"
       x1="28.415569"
       y1="308.37134"
       x2="277.18674"
       y2="308.37134" /><linearGradient
       inkscape:collect="always"
       xlink:href="#linearGradient5596"
       id="linearGradient8996"
       gradientUnits="userSpaceOnUse"
       gradientTransform="matrix(1.0917966,0,0,1.0917963,156.62189,4.6071997)"
       x1="28.415569"
       y1="308.37134"
       x2="277.18674"
       y2="308.37134" /><linearGradient
       inkscape:collect="always"
       xlink:href="#linearGradient14999"
       id="linearGradient15001"
       x1="-13.724495"
       y1="41.704356"
       x2="78.514605"
       y2="41.704356"
       gradientUnits="userSpaceOnUse" /><linearGradient
       inkscape:collect="always"
       xlink:href="#linearGradient14999"
       id="linearGradient15005"
       gradientUnits="userSpaceOnUse"
       x1="-13.724495"
       y1="41.704356"
       x2="78.514605"
       y2="41.704356" /></defs><sodipodi:namedview
     id="namedview184"
     pagecolor="#ffffff"
     bordercolor="#000000"
     borderopacity="0.25"
     inkscape:showpageshadow="2"
     inkscape:pageopacity="0.0"
     inkscape:pagecheckerboard="0"
     inkscape:deskcolor="#d1d1d1"
     showgrid="false"
     showguides="true"
     inkscape:zoom="0.99316403"
     inkscape:cx="118.8122"
     inkscape:cy="164.12193"
     inkscape:window-width="1920"
     inkscape:window-height="1011"
     inkscape:window-x="-8"
     inkscape:window-y="-8"
     inkscape:window-maximized="1"
     inkscape:current-layer="g188"><sodipodi:guide
       position="200.06464,164.10365"
       orientation="1,0"
       id="guide8998"
       inkscape:locked="false" /><sodipodi:guide
       position="481.2943,3.90954"
       orientation="1,0"
       id="guide9000"
       inkscape:locked="false" /></sodipodi:namedview><g
     inkscape:groupmode="layer"
     inkscape:label="Image"
     id="g188"><path
       id="text356"
       style="font-size:118.564px;font-family:Manstein;-inkscape-font-specification:Manstein;fill:#ffffff;fill-rule:evenodd;stroke-width:2.06269"
       d="m 258.40625,202.75586 c -0.61752,-0.005 -1.23117,0.004 -1.84375,0.0234 -2.45032,0 -5.13792,0.15844 -8.0625,0.47461 -2.84553,0.23712 -5.45489,0.55205 -7.82617,0.94726 -2.37128,0.31617 -4.86035,0.75139 -7.46875,1.30469 -2.52936,0.5533 -4.66341,1.02666 -6.40235,1.42187 l -4.98046,1.18555 0.71093,2.37305 c 0.47426,1.58085 1.02782,4.06992 1.66016,7.46875 0.71138,3.39874 1.26494,6.95492 1.66016,10.66992 l 7.11328,-2.60742 6.75976,37.70312 -5.21679,-2.01562 -1.66016,3.55664 c -1.02755,2.45032 -2.37136,5.33646 -4.03125,8.65625 -1.6599,3.24074 -3.08389,5.72981 -4.26953,7.46875 l 1.54297,1.42383 c 1.02755,0.86947 2.52793,1.89639 4.5039,3.08203 2.05511,1.18564 4.34759,2.371 6.87696,3.55664 2.52927,1.26468 5.49383,2.25346 8.89257,2.96484 3.47788,0.79043 6.91563,1.14545 10.31446,1.06641 4.50534,-0.23713 8.89381,-1.38444 13.16211,-3.43945 4.34725,-2.05511 8.25854,-4.82105 11.73632,-8.29883 3.47788,-3.55692 6.40216,-7.90325 8.77344,-13.04102 2.37128,-5.21672 3.83538,-10.8287 4.38867,-16.83594 0.23713,-3.39874 -0.0797,-6.20486 -0.94921,-8.41796 -0.79043,-2.2132 -1.93765,-3.75563 -3.43946,-4.625 -1.42276,-0.94852 -3.19983,-1.50208 -5.33398,-1.66016 -2.13415,-0.23713 -4.07161,-0.19703 -5.81055,0.11914 -1.73894,0.23713 -3.59629,0.67235 -5.57226,1.30469 -1.97607,0.63234 -3.31996,1.1057 -4.03125,1.42187 -0.71139,0.23713 -1.26495,0.43567 -1.66016,0.59375 l 1.89844,-1.54297 c 1.26468,-1.10659 2.68672,-2.56883 4.26758,-4.38671 1.6598,-1.89703 3.20028,-4.10931 4.62304,-6.63868 1.42277,-2.52927 2.25311,-5.17687 2.49024,-7.94336 0.0486,-0.58298 0.0549,-1.17269 0.0371,-1.76562 -0.93675,-0.51904 -1.77899,-1.18077 -2.53907,-1.93555 -1.15492,-1.15703 -2.26808,-2.37664 -2.99609,-3.85742 -0.37198,-0.7751 -0.74438,-1.56469 -0.83008,-2.43164 -0.0613,-0.61996 0.22099,-0.96879 0.5332,-1.00781 0.31222,-0.039 0.6555,0.2316 0.7168,0.85156 0.0722,0.72993 0.39809,1.39189 0.71289,2.04297 0.66998,1.35017 1.69716,2.45868 2.75391,3.51367 0.47489,0.47196 0.98507,0.90393 1.53515,1.2793 -0.22643,-1.81553 -0.75307,-3.67592 -1.58398,-5.58203 -0.79043,-1.58086 -1.97579,-2.92475 -3.55664,-4.03125 -1.58085,-1.18564 -3.35801,-2.09423 -5.33398,-2.72657 -1.89703,-0.63234 -4.11127,-1.06756 -6.64063,-1.30468 -1.89702,-0.23713 -3.77244,-0.36409 -5.625,-0.37891 z m 198.17383,4.05469 c -10.11736,1.02755 -21.42152,1.69945 -33.91016,2.01562 -12.48864,0.31617 -21.10519,0.43451 -25.84765,0.35547 -4.66352,-0.15808 -8.33804,-0.27643 -11.02539,-0.35547 1.42267,6.71862 2.2531,15.92679 2.49023,27.625 5.53289,-1.65989 12.17188,-2.45013 19.91797,-2.37109 l -0.94922,-5.57227 h 5.69141 c -0.31617,3.95213 -0.51276,8.14002 -0.5918,12.56641 0,4.34725 0.0782,8.37875 0.23633,12.09375 0.23712,3.715 0.5139,7.50981 0.83008,11.38281 0.39512,3.87309 0.75023,7.15249 1.0664,9.83984 0.31617,2.68745 0.67315,5.33691 1.06836,7.94532 0.39521,2.52927 0.6319,4.18809 0.71094,4.97851 0.15808,0.79043 0.27642,1.42419 0.35547,1.89844 l 28.57422,-6.99609 c -2.13415,-6.32341 -4.18996,-14.42446 -6.16602,-24.30469 -1.89702,-9.88023 -3.16063,-16.87611 -3.79297,-20.98633 -0.5533,-4.18917 -0.94842,-7.54885 -1.18555,-10.07812 l 6.99415,-0.83008 v 6.52148 l 21.93554,-2.8457 z m -200.70703,18.16211 c 0.87441,-0.0148 1.81447,0.21519 2.82226,0.68945 1.42277,0.5533 2.41155,1.62032 2.96485,3.20117 0.31617,0.63234 0.39441,1.38258 0.23632,2.25195 -0.079,0.79043 -0.19738,1.50243 -0.35546,2.13477 -0.15809,0.63234 -0.47301,1.34434 -0.94727,2.13477 -0.39521,0.71129 -0.79033,1.30308 -1.18555,1.77734 -0.31617,0.39521 -0.71129,0.83043 -1.18554,1.30469 -0.39522,0.47425 -0.672,0.79113 -0.83008,0.94922 -0.079,0.079 -0.19934,0.15728 -0.35742,0.23632 l -3.67383,-14.22851 1.6582,-0.35547 c 0.27665,-0.0593 0.56205,-0.0908 0.85352,-0.0957 z m 11.98242,26.74414 c 0.49401,0.0198 0.99794,0.0694 1.51172,0.14843 1.10659,0.079 2.05527,0.31573 2.8457,0.71094 2.05511,1.26468 3.04193,3.16205 2.96289,5.69141 -0.079,2.52936 -1.06587,5.01843 -2.96289,7.46875 -1.02755,1.42276 -2.29311,2.33135 -3.79492,2.72656 -1.42277,0.39521 -2.44969,0.55365 -3.08203,0.47461 -0.63234,-0.15809 -1.10766,-0.31652 -1.42383,-0.47461 l -2.8457,-15.65039 0.71289,-0.23633 c 0.5533,-0.15808 1.2252,-0.31652 2.01562,-0.47461 0.86947,-0.15808 1.73796,-0.27642 2.60742,-0.35547 0.47426,-0.0395 0.95911,-0.0491 1.45313,-0.0293 z" /><path
       id="path644"
       style="fill:#ffff00;stroke-width:0.269171"
       d="m 359.75,167.61523 c -0.002,-0.002 -0.0497,0.0328 -0.0547,0.0332 0.0119,0.0241 0.006,0.008 0.0176,0.0332 -2e-5,-0.007 0.0409,-0.0633 0.0371,-0.0664 z m -6.61523,5.17969 c -0.0355,0.0293 -0.06,0.0487 -0.0957,0.0781 0.0783,0.0541 0.1578,0.10386 0.24024,0.15039 -0.0475,-0.0834 -0.096,-0.15616 -0.14453,-0.22852 z m -29.02735,21.86524 c -0.0531,0.0354 -0.10498,0.0702 -0.15625,0.10156 -10e-4,0.006 -0.003,0.008 -0.004,0.0137 0.009,-0.0115 0.12716,-0.0779 0.15234,-0.0977 0.007,-0.0143 -0.001,-2.7e-4 0.008,-0.0176 z m -0.2168,0.37695 c -0.0177,0.0789 -0.0358,0.16275 -0.0605,0.26562 0.0743,-0.15887 0.0593,-0.13243 0.0859,-0.19335 -0.0147,-0.0234 -0.0184,-0.0478 -0.0254,-0.0723 z m 20.87696,0.043 c -0.24364,0.0191 -0.41078,0.10352 -0.52149,0.24609 -0.0784,0.10083 -0.18378,0.73927 -0.23437,1.41797 -0.0507,0.67869 -0.13646,1.23042 -0.18945,1.22656 -0.0529,-0.004 -0.5793,-0.17294 -1.16993,-0.375 -1.51091,-0.51694 -2.08986,0.1333 -2.25195,2.52344 -0.0409,0.60379 -0.10318,1.02684 -0.18359,1.33789 0.2023,0.19154 0.40572,0.38196 0.60351,0.57813 0.29937,0.29275 0.60428,0.57893 0.89844,0.87695 0.003,0.002 0.005,0.004 0.008,0.006 0.52759,0.39236 0.979,0.87254 1.40821,1.36719 0.21205,0.26516 0.41218,0.54229 0.58789,0.83398 l 0.002,0.002 c 0.30025,0.36773 0.60085,0.76096 0.875,1.15821 1.37076,1.98528 2.87074,5.89666 2.46289,6.42187 -0.0925,0.11912 -0.62844,0.33997 -1.19141,0.49024 -2.78357,0.74299 -5.71783,2.84137 -6.60742,4.72656 -0.23675,0.50176 -0.553,1.566 -0.70312,2.36328 l -0.27344,1.44922 -2.90625,0.91992 c -11.12375,3.52398 -20.64591,11.87818 -25.85352,22.67969 -6.67136,13.83781 -5.63355,30.76787 2.6836,43.76367 2.76359,4.3183 4.15848,5.87671 8.63476,9.65625 2.25748,1.90609 4.41879,3.65332 4.80274,3.88086 13.3032,7.88784 28.3698,8.61572 41.61328,2.00976 8.8805,-4.42957 15.74925,-11.4676 19.98828,-20.47656 4.03371,-8.57261 5.36913,-19.26237 3.50586,-28.08594 -2.40323,-11.38049 -8.8573,-21.29124 -18.02344,-27.67578 -1.46426,-1.0199 -2.85278,-1.91528 -3.08398,-1.99023 -0.29578,-0.0959 -0.37784,-0.70335 -0.2793,-2.04688 0.11398,-1.55522 -0.0153,-2.26245 -0.69922,-3.81445 -0.81724,-1.85478 -0.90183,-1.95449 -3.16406,-3.76953 -1.46815,-1.17793 -2.77483,-2.03604 -3.54688,-2.33008 l -1.2207,-0.46484 -0.1875,-1.87695 c -0.088,-0.87924 -0.29165,-1.95758 -0.53711,-3.05665 -0.46505,-0.48445 -0.89214,-0.99618 -1.17187,-1.63085 -0.10179,-0.23016 -0.25371,-0.54532 -0.41016,-0.98633 -0.17126,-0.46864 -0.32094,-0.94562 -0.46289,-1.42383 -0.0448,-0.21182 -0.11119,-0.41744 -0.17187,-0.625 -0.0998,-0.30282 -0.19061,-0.60748 -0.28321,-0.91211 -0.008,-0.0226 -0.0144,-0.046 -0.0234,-0.0684 -0.006,-0.015 7.4e-4,-0.003 -0.004,-0.0156 -0.0324,-0.0573 -0.0664,-0.11628 -0.16602,-0.3164 -0.0562,-0.10412 -0.0418,-0.0766 -0.0703,-0.12891 -0.009,-0.0101 3e-5,-6.1e-4 -0.01,-0.0117 -0.26846,-0.32613 -0.52179,-0.66333 -0.77148,-1.0039 -0.27015,-0.38741 -0.51998,-0.7888 -0.78516,-1.17969 -0.18405,-0.27387 -0.37554,-0.54268 -0.55664,-0.81836 -0.13859,-0.12133 -0.30189,-0.23825 -0.44922,-0.34375 -0.2271,-0.16771 -0.46658,-0.31304 -0.71093,-0.45312 -0.44862,-0.16019 -0.89723,-0.31767 -1.34571,-0.47852 -0.59985,-0.23361 -1.20305,-0.48396 -1.74414,-0.83789 -0.16466,-0.10772 -0.319,-0.23049 -0.47851,-0.3457 -0.13059,-0.16668 -0.25104,-0.31474 -0.375,-0.4668 -0.16504,-0.0769 -0.28503,-0.12354 -0.45313,-0.20313 -2.65217,-1.25557 -4.07183,-1.77994 -4.80273,-1.72265 z m 3.4082,3.19531 c 0.35441,-0.0186 0.84165,0.1275 1.45117,0.44336 0.71718,0.37164 1.34669,0.79549 1.39844,0.94336 0.22006,0.62864 -1.86385,4.28464 -2.24219,3.93359 -0.0815,-0.0756 -0.44623,-0.83693 -0.81054,-1.6914 -0.36431,-0.85446 -0.56334,-1.48601 -0.44141,-1.40235 0.12192,0.0837 0.13338,-0.2682 0.0254,-0.7832 -0.1938,-0.92337 0.0285,-1.41239 0.61914,-1.44336 z m 4.08789,1.67773 c 0.58964,-0.0806 2.49785,3.06275 2.35156,4.00391 -0.14631,0.94147 -3.36958,5.07145 -4.23437,5.42578 -0.59977,0.24574 -0.67918,0.20901 -0.87695,-0.40429 -0.11946,-0.37041 -0.4635,-1.22932 -0.76563,-1.91016 -0.50868,-1.14632 -0.50487,-1.23663 0.0566,-1.21289 0.43781,0.0186 0.60699,-0.0984 0.60547,-0.42188 -0.001,-0.24652 0.41381,-1.0062 0.92188,-1.6875 0.50807,-0.68132 1.10294,-1.76307 1.32226,-2.40429 0.21931,-0.64119 0.45289,-1.23882 0.51953,-1.32813 0.0266,-0.0356 0.0603,-0.0554 0.0996,-0.0605 z m 3.26563,5.26172 c 0.0686,-0.0308 0.11447,-0.0129 0.14062,0.0488 0.0773,0.18217 0.42218,1.21179 0.76758,2.28711 l 0.62891,1.95508 -1.72852,2.07226 c -1.34903,1.61965 -2.02418,2.23178 -3.08398,2.79493 -0.74637,0.39662 -1.37669,0.70685 -1.40039,0.6875 -0.0237,-0.0194 -0.17686,-0.92961 -0.3418,-2.02149 -0.16496,-1.09186 -0.35638,-2.03161 -0.42383,-2.08789 -0.0673,-0.0562 0.49049,-0.50284 1.23828,-0.99414 1.11109,-0.72997 1.61923,-1.27106 2.78125,-2.95898 0.79433,-1.15383 1.21597,-1.69074 1.42188,-1.78321 z m 1.81054,6.08204 c 0.0842,0.0687 0.23817,1.23664 0.34375,2.5957 l 0.19336,2.4707 -1.07422,1.07813 c -1.69739,1.70255 -5.3925,3.6496 -5.99414,3.1582 -0.10266,-0.0839 -0.13662,-1.11687 -0.0762,-2.29492 l 0.10938,-2.14258 1.21875,-0.51758 c 1.59267,-0.67827 2.73517,-1.57169 4.05273,-3.16992 0.59012,-0.71589 1.14245,-1.24646 1.22656,-1.17773 z m 0.38477,6.93554 c 0.25048,0.20458 -0.27214,4.28029 -0.60352,4.70703 -0.84347,1.08617 -4.35274,0.86213 -6.01562,-0.38476 -0.24604,-0.18453 -0.45962,-0.44636 -0.47461,-0.58203 -0.015,-0.13573 0.52713,-0.34974 1.20508,-0.47461 1.60803,-0.29621 3.65864,-1.35729 4.81054,-2.49024 0.5057,-0.49732 0.99128,-0.84632 1.07813,-0.77539 z m -21.61133,16.2461 c 1.27068,-0.067 2.56981,0.0463 3.85742,0.35351 3.71006,0.88524 6.03717,3.10474 6.54102,6.23633 0.39234,2.4385 0.0407,3.57614 -1.86719,6.0332 -1.56963,2.02128 -1.76357,2.18578 -3.7207,3.16211 -3.30723,1.65001 -7.16011,1.96529 -10.42188,0.85352 -1.68943,-0.57587 -4.00741,-2.47652 -4.68359,-3.83985 -1.30821,-2.63766 -1.04909,-5.09563 0.81445,-7.75195 2.12472,-3.0286 5.66854,-4.846 9.48047,-5.04687 z M 326,252.04297 c 2.34916,0.002 4.12849,1.02139 5.08398,2.94141 0.98009,1.96911 -0.0574,4.56559 -2.45117,6.13867 -3.34752,2.19976 -8.70761,0.99271 -9.69726,-2.1836 -0.96635,-3.10138 1.90205,-6.35498 6.02343,-6.83398 0.3582,-0.0416 0.70543,-0.0628 1.04102,-0.0625 z" /><text
       xml:space="preserve"
       id="text638"
       style="-inkscape-font-specification:BOZART;font-family:BOZART;stroke-width:1.299;fill-rule:evenodd;fill:#1a1a1a;font-size:74.66666667px;font-weight:normal;font-style:normal;font-stretch:normal;font-variant:normal;white-space:pre;shape-inside:url(#rect640)" /><path
       id="path5592"
       style="fill:#ffff00;stroke:url(#linearGradient5598);stroke-width:3.41148;stroke-dasharray:none"
       d="m 336.26562,4.078125 c -12.05013,0.00359 -28.67198,0.03432 -46.95507,0.091797 l -66.48438,0.2089843 0.0606,1.7636719 c 0.0339,0.9701084 0.12256,9.6653309 0.19726,19.3222659 l 0.13672,17.55664 h 21.30274 21.30273 l 0.20117,78.322266 0.20118,78.32031 5.05273,-9.86328 c 2.7794,-5.42462 7.60195,-14.65827 10.71484,-20.51758 3.11303,-5.85922 19.2833,-36.69792 35.93555,-68.52929 l 30.27734,-57.875004 4.38477,0.521485 c 14.76074,1.758995 25.61286,7.568951 30.44922,16.300781 2.13862,3.861166 2.34428,4.892334 2.34375,11.730469 -4.9e-4,6.152744 -0.32647,8.203109 -1.81641,11.441406 -2.12953,4.628412 -5.60507,8.466768 -10.04492,11.089844 -6.84538,4.044353 -9.33215,4.515688 -26.41016,5.011718 l -16.17773,0.470703 -3.55078,6.681638 c -1.95309,3.67496 -13.90366,26.04652 -26.55664,49.71485 -12.65296,23.66824 -22.87543,43.16941 -22.7168,43.33398 0.15862,0.16459 4.47387,-3.77302 9.58984,-8.75 20.15006,-19.60237 54.80931,-52.30606 55.32032,-52.19922 0.71877,0.15028 2.78174,3.15129 23.92578,34.80469 l 18.05469,27.0293 H 410.25 c 13.88554,0 25.24805,-0.23991 25.24805,-0.53125 0,-0.29135 -0.49138,-1.09018 -1.0918,-1.77539 -1.12609,-1.28513 -46.25586,-67.17234 -46.25586,-67.53125 0,-0.11061 1.86396,-1.0023 4.14258,-1.98047 11.61738,-4.98712 22.7747,-14.64607 28.9043,-25.02344 10.8736,-18.409189 11.52848,-45.708028 1.57226,-65.548828 C 413.97163,20.137401 394.91124,8.0137668 371.18359,4.8574219 L 368.02734,4.4375 355.67188,23.533203 c -37.15631,57.424361 -45.119,69.668296 -45.7461,70.349609 -0.39519,0.429324 -0.68945,-10.278886 -0.68945,-25.05664 V 43.021484 h 10.20898 10.20703 l 13.07227,-19.341796 c 7.18898,-10.6379 13.07025,-19.4251619 13.07031,-19.5292974 4e-5,-0.052009 -7.47908,-0.075852 -19.5293,-0.072266 z" /><text
       xml:space="preserve"
       style="font-style:normal;font-variant:normal;font-weight:normal;font-stretch:normal;font-size:80.8909px;font-family:BOZART;-inkscape-font-specification:BOZART;fill:#ffff00;fill-rule:evenodd;stroke:url(#linearGradient8936);stroke-width:3.73016;stroke-dasharray:none"
       x="190.89316"
       y="377.84662"
       id="text5654"
       transform="rotate(-3.9758184)"><tspan
         sodipodi:role="line"
         id="tspan5652"
         x="190.89316"
         y="377.84662"
         style="stroke:url(#linearGradient8936);stroke-width:3.73016">   I     <tspan
   style="font-size:91.6303px;stroke:url(#linearGradient8936);stroke-width:3.73016"
   id="tspan8576">S</tspan></tspan></text><text
       xml:space="preserve"
       style="font-style:normal;font-variant:normal;font-weight:normal;font-stretch:normal;font-size:79.9641px;font-family:BOZART;-inkscape-font-specification:BOZART;fill:#ffff00;fill-rule:evenodd;stroke:url(#linearGradient8956);stroke-width:3.68743;stroke-dasharray:none"
       x="300.31302"
       y="387.42719"
       id="text8616"
       transform="scale(1.0607712,0.94271036)"><tspan
         sodipodi:role="line"
         id="tspan8614"
         x="300.31302"
         y="387.42719"
         style="stroke:url(#linearGradient8956);stroke-width:3.68743">NE</tspan></text><text
       xml:space="preserve"
       style="font-style:normal;font-variant:normal;font-weight:normal;font-stretch:normal;font-size:90.7978px;font-family:BOZART;-inkscape-font-specification:BOZART;fill:#ffff00;fill-rule:evenodd;stroke:url(#linearGradient8996);stroke-width:4.18701;stroke-dasharray:none"
       x="192.73563"
       y="377.69565"
       id="text8756"
       transform="matrix(1.060766,0.00333907,-0.00296745,0.94270566,0,0)"><tspan
         sodipodi:role="line"
         id="tspan8754"
         x="192.73563"
         y="377.69565"
         style="stroke:url(#linearGradient8996);stroke-width:4.18701">M</tspan></text><path
       style="display:inline;fill:#ff0000;stroke:none;stroke-width:2.28441;stroke-dasharray:none;paint-order:stroke fill markers"
       d="m 385.24278,213.43634 c 0.14575,-0.0175 0.24824,-0.18101 0.228,-0.36457 -0.0202,-0.18362 -6.65922,-5.32474 -14.75318,-11.42476 -8.09397,-6.1 -14.73352,-11.24685 -14.75458,-11.43743 -0.021,-0.19069 3.89739,-1.19186 8.70766,-2.2251 4.81025,-1.03328 8.87153,-2.04039 9.025,-2.23803 0.15341,-0.19767 -4.65901,-1.42196 -10.69445,-2.72066 -6.03544,-1.29872 -10.9817,-2.4354 -10.9917,-2.5259 -0.008,-0.0905 1.96024,-1.80329 4.37828,-3.80601 4.61796,-3.82473 5.31266,-4.50424 4.91082,-4.80342 -0.13539,-0.10082 -2.81517,0.45679 -5.9554,1.23885 -3.14024,0.78206 -5.77333,1.3698 -5.85137,1.30606 -0.0781,-0.0637 4.16164,-5.43713 9.42142,-11.94095 6.17467,-7.63496 9.45389,-11.91448 9.25428,-12.07753 -0.16991,-0.13858 -5.41926,3.99201 -11.66522,9.17956 -6.2459,5.18751 -11.58813,9.53601 -11.8716,9.66325 -0.28495,0.12793 0.19854,-2.73987 1.08131,-6.41407 0.87819,-3.655 1.49641,-6.72735 1.37378,-6.82751 -0.34726,-0.28364 -2.28683,1.65782 -4.81729,4.82199 -1.27082,1.58905 -2.7131,3.2182 -3.20516,3.62031 l -0.89465,0.73113 -2.21122,-6.07835 c -1.21619,-3.34309 -2.4334,-6.18924 -2.70494,-6.32477 -0.31792,-0.15846 -0.80413,2.52315 -1.36529,7.53003 -0.47931,4.27707 -1.03787,7.71406 -1.24113,7.63777 -0.20327,-0.0761 -3.78757,-4.83658 -7.96512,-10.57845 -4.17756,-5.74185 -7.79924,-10.68262 -8.04811,-10.97944 -1.45944,-1.74063 -0.40273,1.4625 4.11702,12.48009 2.79131,6.80427 4.9706,12.5248 4.84288,12.71233 -0.12747,0.18776 -3.19748,-0.76741 -6.82151,-2.12209 -3.62405,-1.35469 -6.74186,-2.44353 -6.92847,-2.41959 -0.18663,0.0241 0.6983,1.5624 1.96638,3.41883 1.26807,1.85645 2.22513,3.47895 2.12678,3.60561 -0.0987,0.12656 -3.62009,-0.001 -7.82605,-0.28382 -7.39974,-0.49746 -8.47564,-0.49457 -8.41848,0.0224 0.0163,0.13341 5.01452,2.75788 11.11055,5.83193 6.09606,3.07403 11.0948,5.68931 11.10833,5.81173 0.0163,0.12229 -4.50471,2.44222 -10.04052,5.15517 -5.53583,2.7129 -10.05121,5.05852 -10.0342,5.21244 0.0457,0.4131 1.13857,0.41363 9.57249,0.005 4.21655,-0.20458 7.83588,-0.31319 8.04295,-0.24135 0.20706,0.0719 0.16745,0.39771 -0.0879,0.72417 -0.7308,0.93225 -17.07815,26.68725 -17.54502,27.63981 -0.22997,0.46892 -0.3061,0.94409 -0.16938,1.05577 0.1366,0.11148 6.15191,-5.66234 13.36709,-12.83119 7.2152,-7.16884 13.58924,-13.44202 14.16458,-13.9404 1.03383,-0.89552 0.87925,10.26637 1.04777,15.41321 0.18366,5.60944 -0.0178,16.55243 -0.0407,16.83731 -0.0234,0.28492 0.11224,0.50009 0.3006,0.47815 0.18871,-0.0219 1.94877,-5.42083 3.91151,-11.99761 1.96267,-6.57678 3.63822,-12.04753 3.72339,-12.15719 0.0851,-0.10981 0.94909,2.36116 1.91969,5.49079 0.9707,3.12966 1.93606,5.62723 2.14528,5.55019 0.20933,-0.0771 0.45417,-2.91858 0.54434,-6.31455 0.0902,-3.39595 0.25825,-6.30362 0.37361,-6.46147 10.9583,-4.83056 6.75528,-8.84061 10.31556,-7.53938 8.40441,3.07168 17.7358,10.27809 33.82123,15.90215 z m -69.82203,-10.88335 c 0.11361,-0.36888 1.23813,-1.9989 2.49882,-3.62231 1.779,-2.29088 2.27803,-3.18049 2.22928,-3.9736 -0.0911,-1.47839 -0.85161,-1.90312 -3.41257,-1.90553 -2.25975,-0.002 -3.64204,-0.56812 -3.0981,-1.26859 0.15715,-0.20217 2.05577,-1.29793 4.21949,-2.43497 4.07499,-2.14142 5.10716,-3.01439 4.97531,-4.20784 -0.11773,-1.06697 -0.91614,-1.55715 -7.29935,-4.48221 -3.24693,-1.4879 -6.15419,-2.90724 -6.46054,-3.15409 -1.10689,-0.89238 0.20243,-1.34536 3.02482,-1.04708 3.16622,0.33467 4.1942,-0.13554 4.76723,-2.18026 0.47703,-1.70242 1.02909,-1.75238 4.68256,-0.42379 4.81174,1.74983 5.93519,0.52485 3.99023,-4.35079 -1.90591,-4.77785 -1.35749,-5.09407 1.99326,-1.14935 2.10464,2.4777 2.48674,2.79636 3.46485,2.88947 1.47573,0.14027 2.02678,-0.69367 2.51205,-3.80235 0.46413,-2.97316 1.25329,-3.59161 2.18549,-1.71278 1.18037,2.37891 2.76379,2.63917 5.00114,0.82196 1.20477,-0.97853 1.56307,-0.32399 1.16549,2.12952 -0.65975,4.07167 1.20923,4.97028 4.80594,2.31065 2.78059,-2.05612 3.37373,-1.42625 1.24199,1.31886 -2.29231,2.95192 -2.0496,4.36768 0.84964,4.9559 1.61416,0.32747 1.86788,0.87386 0.95298,2.05202 -1.62792,2.09633 -0.44813,3.14122 4.93911,4.37437 3.85194,0.88172 5.80914,1.77581 5.30597,2.42381 -0.12519,0.16091 -1.50924,0.64227 -3.07618,1.0697 -3.55107,0.96869 -4.0284,1.2715 -4.1086,2.6063 -0.0583,0.97486 0.23602,1.31586 3.31777,3.84041 3.52134,2.88417 4.36085,3.96421 3.1032,3.99026 -0.37691,0.008 -3.31504,-1.23084 -6.52921,-2.75251 -5.38563,-2.54972 -7.43342,-3.11781 -8.10784,-2.2493 -0.1194,0.15356 -0.28007,1.1251 -0.35712,2.15872 -0.0772,1.0336 -0.2061,1.87451 -0.2868,1.86863 -0.0806,-0.006 -0.88259,-0.26243 -1.78208,-0.57016 -2.30119,-0.78726 -3.18499,0.20224 -3.43184,3.84228 -0.13158,1.941 -0.37443,2.81211 -0.81812,2.93487 -3.44477,0.95331 -3.11251,0.63111 -4.4331,4.29888 -0.66254,1.84002 -1.35721,3.53688 -1.54371,3.77078 -0.84673,1.06095 -1.2749,-1.16285 -1.31505,-6.82429 -0.0583,-8.23666 -0.13767,-8.81196 -1.28635,-9.34755 -1.14525,-0.5339 -1.98538,-0.0633 -6.60929,3.70065 -5.96576,4.85651 -7.82716,5.90647 -7.2708,4.10137 z"
       id="path14403"
       sodipodi:nodetypes="csssssscssssscsssssscscscssscscscscscssssccsssacsssssscscsscccscscssssscssssssssscscccscccsscscsscss" /><path
       style="fill:#d45500;fill-rule:evenodd;stroke:none;stroke-width:0.20417;stroke-dasharray:none;paint-order:stroke fill markers"
       d="m 331.08572,213.07897 c -0.4299,-0.518 -0.56325,-2.10005 -0.7463,-8.85466 -0.2123,-7.83299 -0.24298,-8.04704 -1.2334,-8.6045 -1.37924,-0.7763 -1.94675,-0.47504 -7.62234,4.04636 -5.04824,4.02161 -6.95584,5.32495 -7.49235,5.11907 -0.49803,-0.1911 0.0806,-1.19831 2.75817,-4.80027 1.97004,-2.65024 2.29081,-3.2516 2.26598,-4.24806 -0.0375,-1.50365 -0.73611,-1.91261 -3.53006,-2.06637 -2.53229,-0.13937 -3.78431,-0.53747 -3.55659,-1.13088 0.0804,-0.20959 1.91756,-1.29895 4.85894,-2.88118 3.51779,-1.89229 4.8923,-2.91657 5.1174,-3.81341 0.17359,-0.69161 -0.038,-1.32957 -0.61243,-1.84583 -0.62257,-0.55961 -2.9435,-1.7761 -6.46892,-3.39059 -1.34219,-0.61466 -3.57621,-1.66454 -4.96447,-2.33304 -3.10412,-1.49479 -3.59116,-1.89366 -2.8377,-2.32404 0.22475,-0.12836 0.81341,-0.15868 2.21184,-0.11387 3.42434,0.10972 4.06151,0.0748 4.75383,-0.26031 0.71061,-0.344 1.14012,-0.96639 1.59359,-2.30918 0.51584,-1.52748 1.01272,-1.56406 4.60968,-0.33945 1.8303,0.62315 2.45996,0.77649 3.40284,0.82872 1.43228,0.0793 1.94067,-0.16271 2.17577,-1.03577 0.27067,-1.0052 0.14035,-1.54075 -1.55071,-6.37286 -0.45504,-1.30027 -0.6173,-2.20987 -0.39418,-2.20987 0.30448,0 1.3165,0.92497 2.5197,2.30293 2.71514,3.10955 3.22209,3.56062 4.20054,3.73744 1.64105,0.29658 2.3688,-0.67493 2.92025,-3.89838 0.2889,-1.68884 0.5945,-2.62505 0.97289,-2.98053 0.30979,-0.29103 0.31818,-0.29153 0.60123,-0.0353 0.15787,0.14288 0.52064,0.65828 0.80615,1.14532 0.28552,0.48705 0.69294,1.05073 0.90537,1.25264 0.42309,0.40209 1.24304,0.78987 1.6702,0.78987 0.55404,0 1.60147,-0.45934 2.51954,-1.10489 0.51983,-0.36552 1.05461,-0.66459 1.1884,-0.66459 0.34077,0 0.43726,0.51394 0.33497,1.78417 -0.235,2.91845 -0.23419,3.16848 0.0125,3.85346 0.63062,1.75038 2.25746,1.61696 5.29635,-0.43435 1.35219,-0.91278 1.97748,-1.25599 2.28821,-1.25599 0.41491,0 0.20645,0.66972 -0.55866,1.79478 -0.42327,0.62242 -1.00524,1.47638 -1.29325,1.89772 -1.61345,2.36023 -1.1014,3.79458 1.55531,4.35679 1.20256,0.25448 1.82805,0.69107 1.67607,1.16991 -0.0434,0.13683 -0.29527,0.58385 -0.55966,0.99335 -0.97112,1.5042 -0.93181,2.25319 0.15764,3.00274 0.86255,0.59345 2.0584,1.00658 5.49467,1.89821 3.31016,0.85891 4.4097,1.25017 5.13117,1.82582 0.3628,0.28948 0.43035,0.41028 0.31034,0.55487 -0.16522,0.19908 -1.64191,0.70655 -4.35259,1.49575 -2.06689,0.60178 -2.9048,1.03116 -3.19159,1.63554 -0.26401,0.55634 -0.27209,1.45911 -0.0174,1.94204 0.26685,0.50599 1.41125,1.5823 3.84412,3.61546 2.26603,1.89372 3.48576,3.134 3.41618,3.47374 -0.11976,0.58494 -1.40761,0.12351 -7.65831,-2.7439 -5.88244,-2.6985 -7.65939,-3.20702 -8.53844,-2.44354 -0.27079,0.2352 -0.32019,0.46637 -0.56765,2.65576 -0.0997,0.88211 -0.21453,1.63708 -0.25519,1.67772 -0.0406,0.0406 -0.66207,-0.11449 -1.38095,-0.34476 -0.71887,-0.23028 -1.55436,-0.41868 -1.85663,-0.41868 -1.51562,0 -2.13236,1.13232 -2.44352,4.48628 -0.17059,1.83875 -0.35138,2.6373 -0.65872,2.90943 -0.12328,0.10917 -0.71415,0.33439 -1.31305,0.50049 -1.46225,0.40554 -2.04535,0.72264 -2.44234,1.32815 -0.18307,0.27926 -0.73738,1.61026 -1.23178,2.95777 -1.03965,2.83367 -1.6607,4.24246 -1.9129,4.33925 -0.0978,0.0375 -0.24537,-0.0131 -0.32784,-0.11242 z m 3.05498,-11.27067 c 1.51949,-3.65538 1.48754,-3.61246 3.06406,-4.11502 0.41174,-0.13127 0.82228,-0.308 0.91234,-0.39275 0.09,-0.0848 0.29404,-0.88912 0.45334,-1.78747 0.1593,-0.89834 0.40387,-1.89393 0.54347,-2.21239 0.39043,-0.89062 0.55806,-0.91833 2.94766,-0.48732 0.4161,0.075 0.43634,0.0574 0.51453,-0.44861 0.0448,-0.28971 0.15643,-0.92487 0.24812,-1.41147 l 0.16673,-0.88474 0.88404,0.0138 c 1.00547,0.0155 1.91679,0.33088 6.2827,2.17347 2.88929,1.21939 3.73673,1.51742 3.88713,1.36702 0.16255,-0.16255 -0.14226,-0.51368 -1.47321,-1.69704 -3.11963,-2.7737 -3.52833,-3.19442 -3.52663,-3.6304 0.003,-0.8879 0.58528,-1.2806 2.92805,-1.97632 1.80451,-0.53588 2.38199,-0.76758 2.38199,-0.95573 0,-0.25694 -1.39246,-0.78427 -3.88696,-1.472 -2.95363,-0.81432 -3.52162,-1.0312 -3.87404,-1.47923 -0.35661,-0.45335 -0.34028,-0.75209 0.0836,-1.53094 0.55634,-1.02218 0.44202,-1.19082 -1.20835,-1.78254 -1.50846,-0.54085 -1.52567,-1.15466 -0.0925,-3.30128 0.84599,-1.26725 1.11999,-1.85816 0.86157,-1.85816 -0.0474,0 -0.81724,0.40754 -1.71087,0.90563 -1.96786,1.09685 -2.69384,1.24567 -3.23746,0.66366 -0.32661,-0.34968 -0.33736,-0.42063 -0.30612,-2.02073 0.0178,-0.91207 -0.0246,-1.74663 -0.094,-1.85455 -0.10544,-0.16382 -0.30331,-0.1132 -1.19715,0.30626 -1.43817,0.67488 -1.95137,0.67127 -2.60599,-0.0184 -0.27192,-0.28648 -0.69923,-0.77922 -0.94955,-1.09497 -0.5729,-0.72264 -0.70177,-0.63259 -1.09538,0.76539 -0.16331,0.58003 -0.39737,1.41043 -0.52013,1.84534 -0.29124,1.0317 -0.76787,1.45513 -1.63798,1.45513 -0.62039,0 -0.63942,-0.0141 -2.47963,-1.83753 -1.01996,-1.01064 -1.92832,-1.83752 -2.01859,-1.83752 -0.26195,0 -0.20121,0.31173 0.44745,2.29648 0.81033,2.47944 0.88775,3.05146 0.47278,3.49318 -0.44761,0.47645 -1.32865,0.44262 -3.33452,-0.12804 -2.87926,-0.81914 -2.88748,-0.81842 -3.45612,0.3035 -0.71644,1.41356 -0.77326,1.43941 -3.39013,1.54202 -1.24796,0.049 -2.34559,0.0948 -2.43917,0.1021 -0.32148,0.0248 -0.16968,0.39953 0.27223,0.67202 0.2433,0.15003 2.21864,1.093 4.38965,2.0955 5.28045,2.43834 5.62978,2.67563 5.43866,3.69434 -0.11196,0.59687 -0.4459,0.8606 -2.66283,2.10309 -3.16795,1.77549 -3.93279,2.24678 -3.93279,2.42331 0,0.29901 0.51231,0.47314 1.81377,0.61648 2.0542,0.22623 2.15681,0.25259 2.56232,0.6581 0.60644,0.60644 0.5234,0.98612 -0.55333,2.53009 -2.71192,3.88867 -2.85465,4.13991 -2.35215,4.13991 0.36232,0 1.78462,-0.95348 4.99476,-3.34839 3.14127,-2.34353 3.83186,-2.7767 4.42692,-2.7767 0.58572,0 1.19706,0.38639 1.28008,0.80903 0.0376,0.19136 0.13479,2.00171 0.216,4.023 0.2113,5.25825 0.39896,6.87372 0.79848,6.87372 0.0696,0 0.41315,-0.68908 0.76324,-1.53128 z"
       id="path14870" /><path
       style="fill:#ffff00;fill-rule:evenodd;stroke:none;stroke-width:0.188791;stroke-dasharray:none;paint-order:stroke fill markers"
       d="m 333.10539,202.54081 c -0.0703,-0.36342 -0.16002,-0.94395 -0.1994,-1.29007 -0.0608,-0.53424 -0.44367,-7.98314 -0.44526,-8.66258 -2.6e-4,-0.12646 -0.1661,-0.39549 -0.36844,-0.59784 -0.28916,-0.28915 -0.48039,-0.3679 -0.89347,-0.3679 -0.74605,0 -1.16747,0.23531 -3.58079,1.9994 -4.80492,3.51231 -5.8572,4.20849 -6.05786,4.00783 -0.10121,-0.10121 0.45511,-1.00641 1.83927,-2.99273 1.18712,-1.70356 1.63498,-2.48881 1.63498,-2.86665 0,-0.32789 -0.46697,-0.89537 -0.85962,-1.04466 -0.17773,-0.0676 -0.94905,-0.20532 -1.71406,-0.3061 -1.45877,-0.19219 -2.20901,-0.38157 -2.20901,-0.55761 0,-0.13587 1.07577,-0.80537 3.64995,-2.27151 2.35221,-1.33972 2.84838,-1.74185 2.96317,-2.40156 0.0682,-0.39211 0.0231,-0.51912 -0.32547,-0.91613 -0.42188,-0.48049 -1.3327,-0.95265 -6.83997,-3.54577 -2.56705,-1.20871 -3.23962,-1.58946 -3.0839,-1.74588 0.0422,-0.0424 1.06847,-0.12837 2.28068,-0.19114 2.71098,-0.14038 2.93037,-0.21692 3.48939,-1.21741 0.76597,-1.37085 0.83931,-1.39133 2.9102,-0.8125 2.55473,0.71407 3.50732,0.78762 4.03351,0.31142 0.39471,-0.3572 0.29751,-1.20402 -0.3971,-3.45972 -0.34827,-1.13098 -0.6173,-2.13289 -0.59784,-2.22649 0.0198,-0.0951 0.85437,0.61268 1.89119,1.60375 1.0207,0.97566 2.00048,1.82893 2.17729,1.89615 0.43544,0.16556 1.26095,-0.0324 1.64684,-0.39495 0.1758,-0.16515 0.41009,-0.64022 0.54839,-1.11196 0.13279,-0.45299 0.35732,-1.22008 0.49894,-1.70465 0.4116,-1.40827 0.37042,-1.4027 1.49969,-0.20279 l 0.99365,1.05581 0.6129,-0.0603 c 0.33709,-0.0332 1.02996,-0.24415 1.53971,-0.46881 0.50976,-0.22467 0.97297,-0.36113 1.02936,-0.30325 0.0564,0.0579 0.12075,0.88904 0.143,1.84702 l 0.0405,1.74178 0.36915,0.31722 c 0.56599,0.48638 1.19747,0.3556 3.13654,-0.64958 0.88977,-0.46124 1.64439,-0.81201 1.67693,-0.77947 0.0798,0.0798 -0.17875,0.56181 -1.01405,1.89049 -0.72374,1.15121 -0.92041,1.72938 -0.7794,2.29121 0.0657,0.26194 0.3132,0.4325 1.27534,0.87906 0.65657,0.30474 1.22292,0.63005 1.25855,0.72291 0.0356,0.0929 -0.0784,0.47642 -0.25337,0.85234 -0.38558,0.82833 -0.40184,1.23853 -0.066,1.66544 0.31028,0.39445 0.97024,0.64761 3.84544,1.47509 2.55824,0.73626 3.85845,1.22553 3.79674,1.42869 -0.0237,0.078 -0.77652,0.38204 -1.67296,0.67564 -0.89644,0.2936 -1.87284,0.6248 -2.16977,0.736 -1.14207,0.4277 -1.61911,1.17203 -1.23151,1.92155 0.10747,0.20784 1.14469,1.23384 2.30493,2.27999 2.10472,1.89777 2.6543,2.45846 2.53079,2.58197 -0.10069,0.10069 -1.17011,-0.29704 -4.32294,-1.60772 -3.63956,-1.51303 -4.66833,-1.85771 -5.80023,-1.94332 l -0.90389,-0.0684 -0.21364,1.24419 c -0.29096,1.6945 -0.24381,1.60471 -0.79342,1.51079 -1.00318,-0.17143 -1.90745,-0.23338 -2.22889,-0.15271 -0.4103,0.10298 -0.7171,0.73922 -1.00716,2.08867 -0.1116,0.51918 -0.29019,1.32142 -0.39687,1.78277 -0.21159,0.91498 -0.11311,0.82946 -1.56732,1.36106 -0.38664,0.14134 -0.82308,0.38483 -0.96988,0.54109 -0.26839,0.28569 -0.80184,1.37416 -1.78709,3.64645 -0.29264,0.67493 -0.57853,1.22714 -0.63531,1.22714 -0.0568,0 -0.16074,-0.29735 -0.23104,-0.66077 z m -9.14078,-7.39429 c 0.0428,-0.0692 0.0178,-0.12587 -0.0555,-0.12587 -0.0733,0 -0.13329,0.0566 -0.13329,0.12587 0,0.0692 0.025,0.12586 0.0555,0.12586 0.0305,0 0.0905,-0.0566 0.13329,-0.12586 z"
       id="path14941" /><path
       sodipodi:type="star"
       style="fill:#ffff00;fill-rule:evenodd;stroke:url(#linearGradient15001);stroke-width:5.3;stroke-dasharray:none;paint-order:stroke fill markers"
       id="path14995"
       inkscape:flatsided="false"
       sodipodi:sides="5"
       sodipodi:cx="29.199608"
       sodipodi:cy="43.295971"
       sodipodi:r1="49.583237"
       sodipodi:r2="28.426184"
       sodipodi:arg1="1.152572"
       sodipodi:arg2="1.7808905"
       inkscape:rounded="0"
       inkscape:randomized="0"
       d="M 49.337267,88.605705 23.27127,71.097099 -7.6696312,76.449501 0.92720659,46.248808 -13.724495,18.476245 17.65464,17.319796 39.540293,-5.1969935 50.336827,24.288975 78.514605,38.145396 53.808095,57.525176 Z"
       inkscape:transform-center-x="-2.6882825"
       inkscape:transform-center-y="-1.3390023"
       transform="matrix(0.84128524,0,0,0.84128524,59.564196,28.608605)" /><path
       sodipodi:type="star"
       style="fill:#ffff00;fill-rule:evenodd;stroke:url(#linearGradient15005);stroke-width:5.3;stroke-dasharray:none;paint-order:stroke fill markers"
       id="path15003"
       inkscape:flatsided="false"
       sodipodi:sides="5"
       sodipodi:cx="29.199608"
       sodipodi:cy="43.295971"
       sodipodi:r1="49.583237"
       sodipodi:r2="28.426184"
       sodipodi:arg1="1.152572"
       sodipodi:arg2="1.7808905"
       inkscape:rounded="0"
       inkscape:randomized="0"
       d="M 49.337267,88.605705 23.27127,71.097099 -7.6696312,76.449501 0.92720659,46.248808 -13.724495,18.476245 17.65464,17.319796 39.540293,-5.1969935 50.336827,24.288975 78.514605,38.145396 53.808095,57.525176 Z"
       inkscape:transform-center-x="-2.6882825"
       inkscape:transform-center-y="-1.3390023"
       transform="matrix(0.84128524,0,0,0.84128524,564.01259,214.88196)" /></g></svg>
